<svg width="17" height="16" viewBox="0 0 17 16" fill="none" xmlns="http://www.w3.org/2000/svg">
<path d="M9.1539 12.6509C9.2413 12.738 9.31065 12.8415 9.35796 12.9554C9.40528 13.0694 9.42964 13.1915 9.42964 13.3149C9.42964 13.4383 9.40528 13.5605 9.35796 13.6745C9.31065 13.7884 9.2413 13.8919 9.1539 13.979L8.68984 14.4431C7.81048 15.3224 6.61781 15.8164 5.37421 15.8164C4.13061 15.8164 2.93795 15.3224 2.05859 14.4431C1.17923 13.5637 0.685211 12.371 0.685211 11.1274C0.685211 9.88384 1.17923 8.69117 2.05859 7.81181L3.94296 5.92822C4.78787 5.08122 5.92466 4.58933 7.12048 4.55331C8.3163 4.51729 9.48064 4.93986 10.375 5.73447C10.4673 5.81655 10.5426 5.91601 10.5965 6.02717C10.6504 6.13833 10.6819 6.25902 10.6891 6.38235C10.6964 6.50568 10.6793 6.62923 10.6388 6.74595C10.5983 6.86266 10.5352 6.97026 10.4531 7.06259C10.371 7.15493 10.2716 7.2302 10.1604 7.28409C10.0493 7.33799 9.92856 7.36947 9.80524 7.37672C9.68191 7.38398 9.55836 7.36687 9.44164 7.32638C9.32493 7.28588 9.21733 7.2228 9.12499 7.14072C8.58868 6.66441 7.89065 6.41102 7.17368 6.43237C6.45671 6.45371 5.77499 6.74819 5.26796 7.25556L3.38515 9.13681C2.85762 9.66435 2.56125 10.3798 2.56125 11.1259C2.56125 11.8719 2.85762 12.5874 3.38515 13.1149C3.91268 13.6425 4.62817 13.9388 5.37421 13.9388C6.12026 13.9388 6.83574 13.6425 7.36328 13.1149L7.82734 12.6509C7.91441 12.5637 8.0178 12.4946 8.13161 12.4474C8.24542 12.4002 8.36742 12.3759 8.49062 12.3759C8.61382 12.3759 8.73581 12.4002 8.84963 12.4474C8.96344 12.4946 9.06683 12.5637 9.1539 12.6509ZM14.9414 1.55713C14.0613 0.67912 12.8689 0.186035 11.6258 0.186035C10.3826 0.186035 9.19023 0.67912 8.31015 1.55713L7.84609 2.02119C7.66997 2.19731 7.57102 2.43618 7.57102 2.68525C7.57102 2.93432 7.66997 3.17319 7.84609 3.34931C8.02221 3.52543 8.26108 3.62438 8.51015 3.62438C8.75922 3.62438 8.99809 3.52543 9.17421 3.34931L9.63828 2.88525C10.1658 2.35772 10.8813 2.06135 11.6273 2.06135C12.3734 2.06135 13.0889 2.35772 13.6164 2.88525C14.1439 3.41278 14.4403 4.12827 14.4403 4.87431C14.4403 5.62036 14.1439 6.33584 13.6164 6.86338L11.7328 8.74775C11.2253 9.25491 10.5432 9.54896 9.82609 9.56973C9.10894 9.5905 8.41096 9.33641 7.87499 8.85947C7.78266 8.77739 7.67506 8.71431 7.55834 8.67381C7.44163 8.63332 7.31808 8.61621 7.19475 8.62347C7.07142 8.63072 6.95073 8.6622 6.83957 8.7161C6.7284 8.76999 6.62895 8.84526 6.54687 8.9376C6.46479 9.02993 6.40171 9.13753 6.36121 9.25424C6.32072 9.37096 6.30361 9.49451 6.31087 9.61784C6.31812 9.74117 6.3496 9.86186 6.40349 9.97302C6.45739 10.0842 6.53266 10.1836 6.62499 10.2657C7.51873 11.0601 8.68228 11.483 9.87754 11.4477C11.0728 11.4124 12.2094 10.9217 13.0547 10.0759L14.9391 8.19228C15.8181 7.31242 16.3121 6.1197 16.3125 4.87597C16.3129 3.63224 15.8198 2.43917 14.9414 1.55869V1.55713Z" fill="#633CFF"/>
</svg>
